<?xml version="1.0" standalone="no"?>
<!DOCTYPE svg PUBLIC "-//W3C//DTD SVG 20010904//EN"
 "http://www.w3.org/TR/2001/REC-SVG-20010904/DTD/svg10.dtd">
<svg version="1.0" xmlns="http://www.w3.org/2000/svg"
 width="360.000000pt" height="360.000000pt" viewBox="0 0 360.000000 360.000000"
 preserveAspectRatio="xMidYMid meet">

<g transform="translate(0.000000,360.000000) scale(0.100000,-0.100000)"
fill="#000000" stroke="none">
<path d="M1585 2835 c-135 -30 -258 -88 -366 -171 -93 -71 -186 -184 -151
-184 4 0 35 31 70 70 69 76 198 168 289 204 268 109 597 90 827 -49 32 -19 65
-35 73 -35 71 0 -176 129 -306 159 -105 25 -338 28 -436 6z"/>
<path d="M1993 2680 c-29 -17 -33 -25 -33 -60 0 -79 87 -121 138 -67 67 71
-22 179 -105 127z m79 -27 c20 -18 24 -63 6 -81 -20 -20 -65 -14 -82 10 -21
30 -20 44 4 68 24 24 47 25 72 3z"/>
<path d="M2405 2656 c-35 -35 -42 -72 -21 -111 39 -72 126 -74 162 -3 47 92
-69 186 -141 114z m103 -19 c23 -27 24 -62 2 -90 -26 -32 -48 -34 -84 -6 -31
25 -34 61 -6 89 22 22 72 27 88 7z"/>
<path d="M1509 2644 c-106 -32 -201 -127 -234 -231 -25 -79 -17 -201 17 -268
75 -145 252 -224 404 -181 75 22 152 74 192 130 194 269 -67 647 -379 550z
m235 -50 c144 -70 214 -249 159 -410 -24 -70 -110 -155 -183 -179 -117 -40
-243 -17 -329 61 -73 66 -105 137 -105 233 1 245 242 401 458 295z"/>
<path d="M1524 2491 c-164 -74 -144 -335 28 -382 149 -40 287 113 237 262 -39
115 -158 169 -265 120z m156 -34 c109 -57 115 -224 10 -294 -48 -33 -134 -32
-180 2 -101 75 -90 234 20 292 55 29 95 29 150 0z"/>
<path d="M1010 2411 c0 -11 4 -22 8 -25 14 -9 35 12 29 28 -9 23 -37 20 -37
-3z"/>
<path d="M844 2391 c-34 -21 -84 -77 -84 -95 0 -6 23 -34 50 -61 l50 -49 0
-93 0 -92 -62 -3 -63 -3 -3 -53 c-2 -39 3 -66 17 -95 l21 -41 -35 -36 c-71
-74 -95 -191 -60 -307 29 -97 208 -358 267 -389 40 -21 73 -17 106 11 l30 25
38 -25 c46 -32 81 -32 128 0 l36 24 36 -24 c57 -39 90 -33 142 23 61 65 177
242 203 311 15 39 22 80 23 137 1 74 -2 87 -34 150 -58 112 -160 174 -270 161
-66 -8 -126 -40 -146 -78 l-16 -32 -41 41 -41 42 18 67 c9 38 22 72 27 77 5 6
9 36 9 68 0 68 -12 74 -67 32 l-33 -25 -36 30 c-20 16 -42 27 -50 24 -16 -6
-40 -67 -49 -126 l-7 -47 -29 17 -29 17 0 104 0 104 45 40 c72 63 73 69 15
124 -67 64 -71 66 -106 45z m73 -56 c37 -34 38 -35 22 -61 -9 -15 -28 -34 -42
-42 -24 -15 -27 -14 -60 14 -20 16 -38 34 -40 41 -6 12 57 83 73 83 5 0 26
-16 47 -35z m174 -337 c32 -63 20 -168 -19 -168 -10 0 -35 23 -56 51 -35 47
-38 56 -33 98 3 25 10 59 16 74 l11 28 31 -23 c17 -13 40 -40 50 -60z m51 10
c-7 -7 -14 -3 -22 12 -10 18 -9 24 7 35 16 12 18 11 21 -12 2 -14 -1 -30 -6
-35z m-287 -55 c32 -10 68 -35 104 -71 l56 -54 -65 -23 c-64 -22 -66 -22 -102
-4 -43 22 -72 57 -88 105 -22 66 4 78 95 47z m656 -144 c92 -47 145 -153 137
-276 -6 -94 -56 -197 -160 -333 -66 -85 -77 -95 -109 -98 -25 -2 -40 3 -53 17
-18 20 -18 22 19 75 33 49 39 76 16 76 -5 0 -26 -26 -49 -57 -107 -153 -158
-153 -271 -2 -35 47 -47 57 -58 48 -11 -10 -9 -17 12 -43 59 -72 57 -109 -7
-114 -32 -3 -40 2 -82 50 -72 81 -181 249 -201 309 -36 107 -17 220 47 287 38
38 39 38 94 11 42 -20 43 -20 81 -1 21 11 56 25 77 30 l39 11 -25 -27 c-37
-39 -48 -65 -48 -114 0 -70 66 -150 84 -102 4 10 -5 26 -24 44 -16 15 -30 36
-30 47 1 34 38 100 69 122 l31 22 0 -73 c0 -88 13 -111 60 -111 41 0 66 30 80
99 24 116 152 164 271 103z m-331 -68 c6 -16 10 -44 8 -62 -2 -26 -8 -34 -23
-34 -18 0 -20 8 -23 74 -3 64 -1 73 11 62 8 -6 20 -24 27 -40z"/>
<path d="M1254 1585 c-7 -18 3 -35 21 -35 21 0 28 19 15 35 -16 19 -29 19 -36
0z"/>
<path d="M870 1571 c0 -24 25 -34 40 -16 15 18 5 35 -21 35 -12 0 -19 -7 -19
-19z"/>
<path d="M953 1464 c-8 -21 13 -42 28 -27 13 13 5 43 -11 43 -6 0 -13 -7 -17
-16z"/>
<path d="M1073 1464 c-8 -21 13 -42 28 -27 13 13 5 43 -11 43 -6 0 -13 -7 -17
-16z"/>
<path d="M1284 1469 c-10 -17 23 -46 37 -32 7 7 9 19 6 27 -7 18 -33 21 -43 5z"/>
<path d="M1406 1464 c-4 -10 -2 -22 3 -27 14 -14 43 0 39 20 -4 24 -34 28 -42
7z"/>
<path d="M900 1351 c0 -19 23 -35 34 -24 14 15 5 43 -14 43 -13 0 -20 -7 -20
-19z"/>
<path d="M1024 1359 c-3 -6 1 -18 10 -27 15 -15 17 -15 32 0 19 19 11 38 -16
38 -10 0 -22 -5 -26 -11z"/>
<path d="M1234 1355 c-4 -10 -1 -21 7 -26 20 -12 34 -5 34 17 0 24 -33 31 -41
9z"/>
<path d="M1360 1351 c0 -27 19 -36 37 -18 18 18 9 37 -18 37 -12 0 -19 -7 -19
-19z"/>
<path d="M1144 1265 c-7 -18 3 -35 21 -35 21 0 28 19 15 35 -16 19 -29 19 -36
0z"/>
<path d="M2365 2266 c-8 -19 -20 -36 -27 -38 -10 -4 -13 -36 -11 -131 l2 -127
-142 0 c-200 0 -365 -31 -426 -79 l-25 -19 1 -209 c1 -195 3 -214 28 -298 55
-187 127 -294 198 -296 18 0 111 0 207 0 134 1 175 4 175 13 0 10 -50 14 -206
18 -242 6 -229 0 -289 125 -42 87 -75 197 -85 288 l-7 58 65 -35 c103 -54 191
-69 370 -63 84 3 162 8 175 12 l22 7 0 -181 c0 -112 4 -190 11 -203 21 -40 66
-48 231 -43 84 3 161 5 171 5 10 0 29 11 42 25 l25 24 0 359 c0 259 -3 361
-12 370 -7 7 -12 69 -14 185 l-2 174 -32 46 -31 47 -200 0 -200 0 -14 -34z
m413 -18 c3 -17 -11 -18 -187 -18 -116 0 -192 4 -196 10 -16 26 12 30 193 28
169 -3 187 -5 190 -20z m32 -198 c0 -82 -2 -150 -4 -150 -1 0 -40 43 -85 95
-45 52 -88 95 -96 95 -8 0 -32 -21 -54 -47 -96 -116 -77 -104 -153 -91 l-68
12 0 118 0 118 230 0 230 0 0 -150z m-75 -117 l105 -118 -37 -7 c-61 -11 -371
-9 -378 2 -4 6 16 35 44 66 28 30 72 82 97 115 26 32 50 59 55 59 4 0 55 -53
114 -117z m-387 -4 c53 -6 99 -13 101 -15 3 -2 -10 -19 -27 -37 -24 -25 -32
-42 -32 -69 l0 -36 -76 -7 c-43 -4 -143 -5 -223 -2 -216 8 -356 49 -319 94 54
65 329 100 576 72z m-481 -174 c117 -31 423 -43 506 -19 16 5 17 -3 15 -103
l-3 -108 -55 -12 c-78 -16 -273 -15 -352 2 -80 16 -154 48 -185 77 -20 19 -23
31 -23 106 0 83 0 84 23 78 12 -4 45 -13 74 -21z m973 -303 c0 -293 -1 -320
-18 -335 -14 -13 -47 -16 -190 -18 -153 -1 -175 1 -192 16 -19 17 -20 33 -20
337 l0 318 210 0 210 0 0 -318z"/>
<path d="M2673 1463 c-29 -5 -30 -20 -3 -28 25 -8 100 3 100 15 0 16 -49 22
-97 13z"/>
<path d="M2647 1386 c-8 -21 2 -26 52 -26 51 0 77 12 67 29 -11 17 -113 14
-119 -3z"/>
<path d="M2647 1314 c-15 -15 8 -24 64 -24 46 0 59 3 59 15 0 12 -13 15 -58
15 -32 0 -62 -3 -65 -6z"/>
<path d="M675 990 c-4 -6 -5 -13 -4 -15 2 -1 103 -4 224 -6 190 -4 220 -2 220
11 0 13 -32 15 -216 18 -156 3 -219 0 -224 -8z"/>
<path d="M1343 991 c-104 -7 -134 -25 -154 -91 -12 -41 1 -109 26 -130 8 -7
15 -16 15 -21 0 -5 -79 -9 -175 -9 -149 0 -175 -2 -175 -15 0 -13 106 -15 917
-13 722 2 917 6 921 16 3 9 -73 12 -359 12 l-362 0 24 26 24 26 247 -3 c229
-3 248 -2 267 16 27 23 27 75 2 106 -19 24 -23 24 -189 24 -167 0 -171 -1
-196 -24 -18 -17 -26 -35 -26 -58 0 -33 0 -33 -50 -33 l-50 0 0 45 c0 36 -5
51 -25 69 l-25 23 137 6 c75 4 287 7 470 7 263 0 334 3 331 13 -4 9 -164 12
-754 13 -412 0 -790 -2 -841 -5z m623 -50 c36 -22 59 -70 50 -105 -3 -14 -17
-38 -30 -53 l-24 -28 -289 -5 c-347 -6 -399 -2 -430 35 -43 49 -42 107 2 151
l24 24 333 0 c308 0 335 -1 364 -19z m282 -79 l3 -43 -33 3 c-26 2 -34 8 -36
26 -4 28 25 64 47 60 11 -2 17 -17 19 -46z m97 3 c0 -38 -2 -40 -32 -43 -32
-3 -33 -2 -33 36 0 46 6 54 40 50 22 -3 25 -8 25 -43z m91 29 c-3 -9 -6 -29
-6 -45 0 -24 -4 -29 -25 -29 -23 0 -25 4 -25 45 0 44 1 45 31 45 24 0 30 -3
25 -16z m96 -1 c27 -24 23 -61 -7 -73 -37 -14 -55 -3 -55 34 0 52 28 70 62 39z"/>
</g>
</svg>
