<?xml version="1.0" encoding="iso-8859-1"?>
<!-- Uploaded to: SVG Repo, www.svgrepo.com, Generator: SVG Repo Mixer Tools -->
<svg fill="#000000" height="800px" width="800px" version="1.1" id="Layer_1" xmlns="http://www.w3.org/2000/svg" xmlns:xlink="http://www.w3.org/1999/xlink" 
	 viewBox="0 0 512.001 512.001" xml:space="preserve">
<g>
	<g>
		<circle cx="428.876" cy="377.19" r="20.868"/>
	</g>
</g>
<g>
	<g>
		<circle cx="138.591" cy="377.19" r="20.868"/>
	</g>
</g>
<g>
	<g>
		<path d="M491.675,322.738c-6.488-7.475-14.202-13.674-22.731-18.372l10.741-11.844c24.731-27.263,16.289-70.824-16.902-86.845
			c-16.99-8.201-31.66-20.562-42.733-35.618c3.48-0.843,6.775-2.414,9.608-4.641c6.084-4.782,9.574-11.964,9.574-19.704v-68.97
			c0-7.736-3.49-14.917-9.578-19.702c-5.939-4.666-13.844-6.493-21.416-4.643c-12.385,3.021-23.057,9.698-31.018,18.709
			c-5.929-5.967-14.09-9.54-22.883-9.54c-0.287,0-0.572,0.003-0.861,0.011c-7.783,0.207-14.857,3.166-20.314,7.92l-18.803-6.912
			c-8.608-3.161-18.147,1.25-21.311,9.854c-3.163,8.606,1.248,18.147,9.854,21.311l19.328,7.104
			c2.542,95.697,2.445,88.494,2.233,92.69c-1.403,28.094-15.495,53.802-37.428,70.281c-4.128-18.027-13.767-33.969-27.025-45.986
			c18.815-11.503,31.4-32.237,31.4-55.858c0-13.814-11.239-25.053-25.054-25.053H143.851c-13.814,0-25.053,11.238-25.053,25.053
			v34.911C57.74,207.436,8.672,256.763,0.277,319.817c-1.204,9.041,1.554,18.16,7.568,25.019
			c6.004,6.849,14.678,10.777,23.796,10.777h26.668c-1.874,6.977-2.839,14.216-2.839,21.582c0,45.832,37.287,83.12,83.12,83.12
			s83.12-37.287,83.12-83.12c0-7.366-0.966-14.605-2.84-21.582h129.732c-1.873,6.974-2.841,14.211-2.841,21.582
			c0,45.832,37.287,83.12,83.12,83.12s83.121-37.287,83.121-83.12C512,357.18,504.783,337.839,491.675,322.738z M406.031,89.454
			v43.551c-2.78-2.116-5.113-4.75-6.893-7.737c-3.891-11.425-3.858-10.607-3.858-14.038
			C395.28,102.447,399.406,94.498,406.031,89.454z M152.002,170.133h105.165c-3.619,13.833-16.225,24.069-31.176,24.069h-73.989
			V170.133z M138.587,427.112c-27.524,0-49.917-22.392-49.917-49.917c0-7.553,1.679-14.886,4.904-21.582h90.024
			c3.226,6.696,4.905,14.03,4.905,21.582C188.504,404.719,166.112,427.112,138.587,427.112z M364.218,322.411
			c-3.077,0-323.796,0-330.772,0C41.525,268.462,88.401,228,143.224,228h57.167c30.702,0,55.681,24.978,55.681,55.681
			c0,7.017-1.132,15.324,7.346,21.018c4.591,3.085,10.418,3.676,15.536,1.587c45.35-18.533,76.232-62.135,78.677-111.082
			c0.294-5.901,0.328,0.042-2.206-95.291l7.73,22.69l5.497,16.139l3.78,11.097c12.719,37.339,40.392,68.592,75.922,85.742
			c13.218,6.379,16.617,23.75,6.74,34.637l-18.11,19.968C418.719,310.323,392.308,322.411,364.218,322.411z M428.88,427.111
			c-27.523,0-49.917-22.392-49.917-49.917c0-8.17,1.96-16.071,5.714-23.19c21.166-3.175,41.72-12.136,58.401-24.673
			c20.772,6.19,35.718,25.685,35.718,47.864C478.797,404.719,456.405,427.111,428.88,427.111z"/>
	</g>
</g>
</svg>